<?xml version="1.0" encoding="utf-8"?>
<!-- Generator: Adobe Illustrator 22.0.1, SVG Export Plug-In . SVG Version: 6.00 Build 0)  -->
<svg version="1.1" id="Ebene_1" xmlns="http://www.w3.org/2000/svg" xmlns:xlink="http://www.w3.org/1999/xlink" x="0px" y="0px"
	 width="50px" height="50px" viewBox="0 0 50 50" style="enable-background:new 0 0 50 50;" xml:space="preserve">
<style type="text/css">
	.st0{fill-rule:evenodd;clip-rule:evenodd;fill:#FFFFFF;}
</style>
<rect width="50" height="50"/>
<path class="st0" d="M12.149,32.714c-0.383,1.601-0.319,1.346-0.646,2.92c-0.246,1.218-0.461,2.389-0.644,3.465l2.939-0.731
	l1.336-0.347l0.888-0.259c0.595-0.167,1.187-0.333,1.775-0.498c0.618-0.164,1.105-0.293,1.928-0.473l0.878-0.927
	c0.263-0.269,0.53-0.534,0.804-0.794l1.892-1.549c1.03-1.194,2.051-2.903,3.194-3.869c2.054-1.737,4.099-3.54,6.135-5.386
	c1.014-0.931,2.031-1.864,3.048-2.798l1.52-1.417l2.459-2.39l-2.292-2.354l-1.335-1.408l-1.337-1.406l-2.506-2.55
	c-1.932,1.916-3.86,3.828-5.782,5.734l0.431,0.451c0.408,0.42,0.818,0.844,1.232,1.271c0.344,0.346,0.691,0.694,1.041,1.046
	c0.436,0.427,0.887,0.852,1.346,1.275c0.924,0.835,1.867,1.688,2.795,2.526l2.19-2.167c-1.157-1.049-2.275-2.095-3.255-3.158
	c-0.207-0.224-0.412-0.432-0.615-0.627c-0.266-0.247-0.524-0.486-0.777-0.722c-0.685-0.63-1.313-1.169-1.88-1.634
	c-0.373,0.448-0.744,0.894-1.115,1.338l-0.508,0.619c-0.159,0.195-0.352,0.422-0.428,0.531c-0.41,0.54-0.857,1.08-1.406,1.624
	c-1.959,1.942-3.906,4.043-5.89,6.126c-0.992,1.042-1.994,2.08-3.012,3.091l-1.54,1.495l-1.977,1.845
	c0.512,0.582,1.02,1.16,1.53,1.74c0.862,1.045,3.077,2.614,4.625,4.079l0.55-0.466c-1.6-1.53-2.854-2.934-4.529-4.136
	c0.016-0.079,0.038-0.153,0.062-0.224c0.077,0.004,0.138-0.008,0.221,0.002c1.666,1.138,3.08,2.922,4.494,4.148l0.797-0.669
	c-0.765-0.597-1.831-1.325-2.828-2.071c-0.498-0.373-0.98-0.751-1.397-1.12c-0.407-0.358-0.837-0.796-0.823-0.871
	c-0.046-0.109-0.13-0.25-0.239-0.397c0.081-0.068,0.17-0.142,0.263-0.22l0.127-0.117l0.188-0.187
	c0.497-0.499,1.005-1.034,1.469-1.559c0.929-1.05,1.686-2.063,1.834-2.671c0.315-0.022,0.223,0.046,0.574,0.155
	c0.778-1.66,2.119-3.425,3.721-5.18c0.801-0.878,1.667-1.753,2.561-2.611c0.884-0.849,1.846-1.73,2.666-2.451
	c0.799,0.923,1.581,1.827,2.319,2.679c0.853,0.996,1.843,1.974,2.848,2.974l0.549-0.543c-0.885-0.881-1.781-1.777-2.603-2.716
	c-0.411-0.47-0.804-0.95-1.168-1.444c-0.215-0.28-0.295-0.434-0.354-0.58c-0.062-0.149-0.094-0.28-0.086-0.385
	c0.004-0.041-0.029-0.074-0.09-0.109c0.009-0.116-0.238-0.408-0.119-0.505c0.284-0.164,0.446-0.202,0.82-0.459
	c0.306-0.187,0.734-0.499,0.823-0.462c0.089-0.16,0.196-0.409,0.387-0.75c0.193,0.047,0.477,0.178,0.805,0.411
	c0.404,0.307,0.906,0.77,1.293,1.243c0.694,0.816,1.422,1.672,2.177,2.559c-0.193,0.171-0.388,0.344-0.584,0.518l-0.428,0.408
	l-0.544,0.533c-0.721,0.721-1.448,1.448-2.173,2.174c-1.432,1.472-2.856,2.936-4.2,4.317c-1.214,1.252-2.481,4.146-4.053,5.258
	c-0.991,0.701-1.947,1.482-2.88,2.306c-0.467,0.412-0.928,0.835-1.385,1.263l-1.18,1.114c-1.151,0.185-2.299,0.369-3.437,0.552
	l-0.881,0.127l-0.392,0.02c-0.24,0.004-0.435-0.012-0.544-0.059c0.143-0.305,0.292-0.555,0.441-0.697
	c0.047-0.045,0.074-0.075,0.088-0.104c0.009-0.024,0.006-0.008,0.016-0.065l0.053-0.301c0.031-0.202,0.053-0.407,0.07-0.613
	c0.005-0.088,0.023-0.24,0.015-0.277l-0.033-0.087c-0.093-0.234-0.139-0.786-0.041-1.015c0.023-0.049,0.047-0.101,0.075-0.161
	c0.139,0.192,0.29,0.4,0.447,0.617c0.06,0.085,0.121,0.171,0.183,0.259l0.083,0.115l0.02,0.027l0.078,0.086l0.168,0.183
	c0.903,0.979,1.881,1.969,2.897,2.845c0.537-0.341,1.056-0.724,1.568-1.132c-0.874-0.998-1.752-2.001-2.635-3.01l-0.767-0.864
	l-1.059-1.159c-0.751-0.814-1.504-1.631-2.262-2.451C12.877,29.815,12.514,31.262,12.149,32.714z M32.946,19.026l-0.237-0.017
	l-0.45-0.424l0.262-0.371l0.687,0.441L32.946,19.026z M31.728,24.213l0.067-0.324c1.264-2.053,2.792-3.068,4.401-4.527
	c0.553-0.499,1.179-1.095,1.785-1.683c-2.132-2.197-3.639-3.615-5.77-5.741c-0.568,0.565-1.126,1.12-1.675,1.666
	c-0.568,0.536-1.126,1.062-1.678,1.582c-0.177,0.164-0.352,0.327-0.517,0.48c0.545,0.59,1.08,1.169,1.608,1.742
	c0.449,0.472,0.893,0.939,1.332,1.401c0.884,0.92,1.753,1.82,2.578,2.74l0.045,0.049l0.881-0.872
	c-0.557-0.59-1.199-0.749-1.476-1.332l-0.172-0.11l0.262-0.371c0.655,0.438,1.26,0.902,1.823,1.381l-1.755,1.737
	c-1.075-0.914-2.006-1.886-2.861-2.854c-0.418-0.488-0.829-0.968-1.233-1.439c-0.63-0.706-1.247-1.397-1.845-2.067
	c0.374-0.358,0.74-0.709,1.099-1.053c0.326-0.324,0.645-0.641,0.96-0.954c0.895-0.909,1.775-1.803,2.611-2.652
	c0.682,0.684,1.356,1.36,2.023,2.03c0.458,0.469,0.911,0.932,1.362,1.393c1.061,1.09,2.107,2.165,3.15,3.236l-2.076,2.02
	l-1.596,1.519c-1.069,1.012-2.146,2.031-3.241,3.067L31.728,24.213z M30.615,24.935l0.55-0.242l-0.229,0.585l-0.241-0.041
	L30.615,24.935z M12.839,36.773l-0.121,0.524l4.312-0.808l0.362,0.09l0.041,0.106l-5.505,1.378l0.06-0.361
	C12.448,37.085,12.346,37.192,12.839,36.773z M12.948,36.49l-0.412,0.305c-0.177-0.334-0.164-0.938-0.075-1.54
	c0.091-0.614,0.211-1.019,0.386-1.559c0.175-0.52,0.355-1.058,0.536-1.596c0.163-0.513,0.295-1.016,0.397-1.746
	c0.178,0.143,0.361,0.269,0.563,0.385l0.115,0.245c0.019,0.306,0.045,0.62,0.079,0.942c-0.129-0.088-0.256-0.187-0.398-0.311
	c-0.125,0.799-0.314,1.453-0.538,2.243c-0.133,0.497-0.265,0.993-0.393,1.473C13.104,35.731,13.01,36.135,12.948,36.49z"/>
</svg>
